<svg xmlns="http://www.w3.org/2000/svg" xmlns:xlink="http://www.w3.org/1999/xlink" height="30" width="30">
  <g opacity="1">
    <g opacity="1">
      <g opacity="1">
        <path fill="rgb(0,0,0)" fill-opacity="1" opacity="1" fill-rule="evenodd" d="M2 13.00000000000005L28 13.00000000000005C29.103830048988 13.00000000000005 30 13.89616995101205 30 15.00000000000005L30 15.00000000000005C30 16.10383004898805 29.103830048988 17.00000000000005 28 17.00000000000005L2 17.00000000000005C0.8961699510120003 17.00000000000005 2.220446049250313e-16 16.10383004898805 0 15.00000000000005L0 15.00000000000005C0 13.89616995101205 0.8961699510119996 13.00000000000005 1.9999999999999996 13.00000000000005Z"/>
      </g>
      <g transform="translate(15, 15.00000000000005) rotate(90.00003218077504) translate(-15, -15.00000000000005)" opacity="1">
        <path fill="rgb(0,0,0)" fill-opacity="1" opacity="1" fill-rule="evenodd" d="M2 13.00000000000005L28 13.00000000000005C29.103830048988 13.00000000000005 30 13.89616995101205 30 15.00000000000005L30 15.00000000000005C30 16.10383004898805 29.103830048988 17.00000000000005 28 17.00000000000005L2 17.00000000000005C0.8961699510120003 17.00000000000005 2.220446049250313e-16 16.10383004898805 0 15.00000000000005L0 15.00000000000005C0 13.89616995101205 0.8961699510119996 13.00000000000005 1.9999999999999996 13.00000000000005Z"/>
      </g>
    </g>
  </g>
</svg>