<svg xmlns="http://www.w3.org/2000/svg" width="28" height="28" viewBox="0 0 28 28">
  <g>
    <path fill="rgb(250,179,89)" fill-rule="evenodd" d="M1.4 0h25.2c.77268103 0 1.4.62731897 1.4 1.4 0 .77268103-.62731897 1.4-1.4 1.4H1.4C.62731897 2.8 0 2.17268103 0 1.4 0 .62731897.62731897 0 1.4 0z"/>
    <path fill="rgb(250,179,89)" fill-rule="evenodd" d="M1.4 12.6h25.2c.77268103 0 1.4.62731897 1.4 1.4 0 .77268103-.62731897 1.4-1.4 1.4H1.4C.62731897 15.4 0 14.77268103 0 14c0-.77268103.62731897-1.4 1.4-1.4z"/>
    <path fill="rgb(250,179,89)" fill-rule="evenodd" d="M1.4 25.2h25.2c.77268103 0 1.4.62731897 1.4 1.4 0 .77268103-.62731897 1.4-1.4 1.4H1.4C.62731897 28 0 27.37268103 0 26.6c0-.77268103.62731897-1.4 1.4-1.4z"/>
  </g>
</svg>
