<svg id="logofinal1" xmlns="http://www.w3.org/2000/svg" xmlns:xlink="http://www.w3.org/1999/xlink" viewBox="0 0 329.21 395.03"><defs><style>.cls-1{fill:url(#linear-gradient);}.cls-2{fill:#eae9e4;}.cls-3{fill:url(#linear-gradient-2);}.cls-4{fill:url(#linear-gradient-3);}.cls-5{fill:url(#linear-gradient-4);}.cls-6{fill:url(#linear-gradient-5);}.cls-7{fill:url(#linear-gradient-6);}.cls-8{fill:url(#radial-gradient);}.cls-9{fill:#333;}</style><linearGradient id="linear-gradient" x1="276.5" y1="119.24" x2="398.4" y2="288.6" gradientTransform="translate(159.05 -61.27) rotate(35.75)" gradientUnits="userSpaceOnUse"><stop offset="0" stop-color="#ffc466"/><stop offset="0.22" stop-color="#ffc165"/><stop offset="0.4" stop-color="#feb762"/><stop offset="0.56" stop-color="#fda65d"/><stop offset="0.72" stop-color="#fb8e55"/><stop offset="0.8" stop-color="#fa7e50"/></linearGradient><linearGradient id="linear-gradient-2" x1="336.17" y1="50.98" x2="336.17" y2="63.84" gradientTransform="translate(455.75 -154.46) rotate(90)" gradientUnits="userSpaceOnUse"><stop offset="0" stop-color="#ffc35c"/><stop offset="1" stop-color="#eb824f"/></linearGradient><linearGradient id="linear-gradient-3" x1="301.41" y1="100.03" x2="423.32" y2="269.39" gradientTransform="matrix(-0.81, 0.58, 0.58, 0.81, 352.4, -61.27)" xlink:href="#linear-gradient"/><linearGradient id="linear-gradient-4" x1="361.68" y1="32.61" x2="361.68" y2="45.47" gradientTransform="matrix(-1, 0, 0, 1, 443.34, 142.67)" xlink:href="#linear-gradient-2"/><linearGradient id="linear-gradient-5" x1="239.99" y1="149.51" x2="239.99" y2="406.63" gradientTransform="matrix(1, 0, 0, 1, 0, 0)" xlink:href="#linear-gradient"/><linearGradient id="linear-gradient-6" x1="164.58" y1="0" x2="164.58" y2="12.86" gradientTransform="matrix(1, 0, 0, 1, 0, 0)" xlink:href="#linear-gradient-2"/><radialGradient id="radial-gradient" cx="239.99" cy="397.55" r="126.12" gradientUnits="userSpaceOnUse"><stop offset="0" stop-color="#9ca747"/><stop offset="0.25" stop-color="#98a345"/><stop offset="0.48" stop-color="#8e9840"/><stop offset="0.69" stop-color="#7b8637"/><stop offset="0.9" stop-color="#626c2b"/><stop offset="1" stop-color="#545e24"/></radialGradient></defs><title>logoSiriPrem</title><path class="cls-1" d="M236.55,402.33c-.15-.82-3.45-20.25-1.85-46.84,1.49-24.62,7.7-60.14,28.85-89.52,25.55-35.5,57.09-52.35,79-60.23,23.85-8.56,41.48-8.7,42.22-8.7h2.53l.8,2.4c.23.7,5.69,17.47,5.15,42.8-.51,23.32-6.48,58.57-32,94.07-21.15,29.38-52.86,46.54-75.74,55.77-24.7,10-44.18,13-45,13.12l-3.39.51Z" transform="translate(-75.39 -124.22)"/><path class="cls-2" d="M384.82,200.54s22.05,66.4-26.4,133.71C318.43,389.81,240,401.73,240,401.73S226.4,323.57,266.39,268c48.45-67.31,118.43-67.47,118.43-67.47m5-7-5.06,0c-.76,0-19,.14-43.39,8.9-22.42,8.05-54.62,25.25-80.7,61.48-21.64,30.06-28,66.28-29.5,91.36-1.63,27,1.74,46.82,1.89,47.65l1.17,6.75,6.78-1c.83-.13,20.7-3.22,45.78-13.33,23.31-9.4,55.63-26.92,77.27-57,26.08-36.23,32.17-72.22,32.68-96,.57-25.93-5.08-43.26-5.32-44l-1.6-4.81Z" transform="translate(-75.39 -124.22)"/><ellipse class="cls-3" cx="398.34" cy="181.71" rx="6.43" ry="6.18" transform="translate(-57.24 274.63) rotate(-54.25)"/><path class="cls-4" d="M239.48,405.19c-.82-.13-20.3-3.16-45-13.12-22.88-9.23-54.59-26.39-75.74-55.77-25.55-35.5-31.52-70.75-32-94.07-.54-25.33,4.92-42.1,5.15-42.8l.8-2.4h2.53c.74,0,18.37.14,42.22,8.7,22,7.88,53.49,24.73,79,60.23,21.15,29.38,27.36,64.9,28.85,89.52,1.6,26.59-1.7,46-1.85,46.84l-.58,3.37Z" transform="translate(-75.39 -124.22)"/><path class="cls-2" d="M95.18,200.54s70,.16,118.43,67.47c40,55.56,26.4,133.72,26.4,133.72s-78.44-11.92-118.43-67.48c-48.45-67.31-26.4-133.71-26.4-133.71m-5-7-1.6,4.81c-.24.72-5.89,18-5.32,44,.51,23.81,6.6,59.8,32.68,96,21.64,30.06,54,47.58,77.27,57,25.08,10.11,45,13.2,45.78,13.33l6.78,1,1.17-6.75c.15-.83,3.52-20.66,1.89-47.65-1.52-25.08-7.86-61.3-29.5-91.36-26.08-36.23-58.28-53.43-80.7-61.48-24.41-8.76-42.63-8.9-43.39-8.9l-5.06,0Z" transform="translate(-75.39 -124.22)"/><ellipse class="cls-5" cx="81.66" cy="181.71" rx="6.18" ry="6.43" transform="translate(-166.16 -42.28) rotate(-35.75)"/><path class="cls-6" d="M237.55,404.23c-.6-.58-14.63-14.42-28.86-36.94C195.51,346.44,179.8,314,179.8,277.78c0-43.74,15.75-75.83,29-95.06,14.35-20.87,28.58-31.29,29.18-31.72l2.05-1.49,2,1.49c.6.43,14.83,10.85,29.18,31.72,13.22,19.23,29,51.32,29,95.06,0,36.2-15.71,68.66-28.89,89.51-14.23,22.52-28.27,36.36-28.86,36.94l-2.45,2.4Z" transform="translate(-75.39 -124.22)"/><path class="cls-2" d="M240,153.83s56.7,41,56.7,123.95c0,68.46-56.7,124-56.7,124s-56.69-55.49-56.69-124c0-82.93,56.69-123.95,56.69-123.95m0-8.64-4.1,3c-.62.45-15.32,11.21-30,32.58-13.49,19.63-29.58,52.4-29.58,97a150.16,150.16,0,0,0,9.27,50.61,208.17,208.17,0,0,0,20.16,40.77c14.44,22.86,28.76,37,29.37,37.57l4.89,4.79,4.9-4.79c.6-.59,14.92-14.71,29.37-37.57,13.42-21.24,29.43-54.34,29.43-91.38,0-44.64-16.09-77.41-29.58-97-14.69-21.37-29.39-32.13-30-32.58l-4.11-3Z" transform="translate(-75.39 -124.22)"/><ellipse class="cls-7" cx="164.58" cy="6.43" rx="6.18" ry="6.43"/><path class="cls-8" d="M279.68,421.19A146.4,146.4,0,0,1,240,415.7a146.33,146.33,0,0,1-39.69,5.49,126.26,126.26,0,0,1-27.38-2.91c-35.74-7.95-60.8-31.38-61.85-32.37l-4.2-4,5.48-1.87a141,141,0,0,1,41.82-6.15,126.13,126.13,0,0,1,27.38,2.91c28.11,6.25,50,20,58.44,26.49,8.4-6.48,30.34-20.24,58.45-26.49a126.13,126.13,0,0,1,27.38-2.91,141,141,0,0,1,41.82,6.15l5.48,1.87-4.2,4c-1.05,1-26.11,24.42-61.85,32.37A126.29,126.29,0,0,1,279.68,421.19Z" transform="translate(-75.39 -124.22)"/><path class="cls-2" d="M325.82,377.41a138.67,138.67,0,0,1,40.69,6s-25,23.66-60.2,31.5a123,123,0,0,1-26.63,2.82A141.79,141.79,0,0,1,240,412.05a141.62,141.62,0,0,1-39.68,5.64,123,123,0,0,1-26.63-2.82c-35.21-7.84-60.2-31.5-60.2-31.5a138.67,138.67,0,0,1,40.69-6,122.82,122.82,0,0,1,26.62,2.82c31.13,6.93,54.25,23.21,59.2,27.59,4.95-4.38,28.08-20.66,59.21-27.59a122.82,122.82,0,0,1,26.62-2.82m0-7a130,130,0,0,0-28.14,3A165.35,165.35,0,0,0,240,399a165.28,165.28,0,0,0-57.68-25.55,130,130,0,0,0-28.14-3,144.88,144.88,0,0,0-43,6.34l-10.95,3.74,8.4,8c1.08,1,26.82,25.09,63.5,33.25a130.1,130.1,0,0,0,28.15,3A150.58,150.58,0,0,0,240,419.34a150.75,150.75,0,0,0,39.69,5.35,130,130,0,0,0,28.14-3c36.68-8.16,62.43-32.23,63.5-33.25l8.41-8-11-3.74a144.77,144.77,0,0,0-42.95-6.34Z" transform="translate(-75.39 -124.22)"/><path class="cls-9" d="M120.21,471.55q-.7-8.1-4.25-12.94a11.43,11.43,0,0,0-9.75-4.86,14.4,14.4,0,0,0-5.1.9A11.82,11.82,0,0,0,97,457.2a12.4,12.4,0,0,0-2.7,3.85,11.21,11.21,0,0,0-1,4.7,8.31,8.31,0,0,0,1.85,5.4,16.82,16.82,0,0,0,5.55,4.21q4.59,2.38,8.5,4A36.63,36.63,0,0,1,116,482.9a14.54,14.54,0,0,1,4.45,4.71,14.4,14.4,0,0,1,1.6,7.25,30.05,30.05,0,0,1-1.25,8.39,25.24,25.24,0,0,1-3.85,7.86,20.5,20.5,0,0,1-6.65,5.79,19.38,19.38,0,0,1-9.55,2.25,24.31,24.31,0,0,1-5.4-.5,18.07,18.07,0,0,1-3.7-1.2,9.82,9.82,0,0,1-2.3-1.39c-.54-.47-.9-.81-1.1-1a45,45,0,0,1-3.8,2.5,16.7,16.7,0,0,1-3.6,1.59q.09-7.59.35-13.45a88.58,88.58,0,0,1,1-10.25h3.1A6.11,6.11,0,0,0,85,497v1.55a17.57,17.57,0,0,0,1.3,6.9,16.41,16.41,0,0,0,3.4,5.25,15.43,15.43,0,0,0,4.75,3.35,12.89,12.89,0,0,0,5.45,1.2,15.72,15.72,0,0,0,4.65-.84,17.19,17.19,0,0,0,5-2.6,15.73,15.73,0,0,0,4-4.44,11.83,11.83,0,0,0,1.65-6.29,10.24,10.24,0,0,0-1.65-5.79,10.69,10.69,0,0,0-5-3.9c-2.94-1.2-5.74-2.29-8.4-3.29a35.64,35.64,0,0,1-7-3.5,16,16,0,0,1-4.9-4.94,14.53,14.53,0,0,1-1.85-7.84A22.5,22.5,0,0,1,88,463a22.78,22.78,0,0,1,4.5-7,20,20,0,0,1,6.35-4.55,17.54,17.54,0,0,1,7.25-1.59,12.43,12.43,0,0,1,3.45.44,18.37,18.37,0,0,1,2.85,1.1c.86.44,1.7.9,2.5,1.4s1.56.95,2.3,1.35a19.05,19.05,0,0,1,6.3-3.5q.3,3.51.3,7.21c0,2.13-.09,4.34-.25,6.64s-.42,4.65-.75,7.05Z" transform="translate(-75.39 -124.22)"/><path class="cls-9" d="M143.48,509.15a31.65,31.65,0,0,1-2.65,3.3,27.19,27.19,0,0,1-3.25,3,19.55,19.55,0,0,1-3.4,2.2,6.77,6.77,0,0,1-2.9.86c-1.07,0-1.74-.37-2-1.11a7.17,7.17,0,0,1-.4-2.5,4.47,4.47,0,0,1,.05-.8,7,7,0,0,1,.15-.7l5.6-29.5a1.46,1.46,0,0,0,.1-.59q0-.81-.6-.81c-.74,0-2.3,1.37-4.7,4.1l-1.2-2.2a25.21,25.21,0,0,1,2.7-3.25,35.49,35.49,0,0,1,3.3-3,21.7,21.7,0,0,1,3.4-2.25,6.69,6.69,0,0,1,3-.9,1.87,1.87,0,0,1,1.65.81,5.49,5.49,0,0,1,.55,2.89v.7a4.92,4.92,0,0,1-.1.8l-5.3,25c-.14.74-.27,1.45-.4,2.15a10,10,0,0,0-.2,2c0,1.13.26,1.69.8,1.69q1.09,0,4.7-4Zm-2.1-43.29q-4.8,0-4.8-5.81,0-5.6,5.2-5.6c3.26,0,4.9,1.87,4.9,5.6S144.91,465.86,141.38,465.86Z" transform="translate(-75.39 -124.22)"/><path class="cls-9" d="M149.2,519.25l5.8-32.6c.06-.4.11-.78.15-1.15s0-.75,0-1.14c0-1.21-.27-1.81-.8-1.81a4.4,4.4,0,0,0-1.9,1.06,26.15,26.15,0,0,0-3.3,3l-1.1-2.2a34.65,34.65,0,0,1,2.55-3.25,32.67,32.67,0,0,1,3-3,19.69,19.69,0,0,1,3.1-2.25,6,6,0,0,1,2.95-.9,2.13,2.13,0,0,1,1.5.56,2.88,2.88,0,0,1,.6,2.14c0,.8-.07,2.2-.2,4.2a41.3,41.3,0,0,1-1.4,7.5q1.29-2.7,2.85-5.34a33.64,33.64,0,0,1,3.3-4.75,21.84,21.84,0,0,1,3.5-3.46,5.64,5.64,0,0,1,3.45-1.35,3.82,3.82,0,0,1,2.8,1.1,4.52,4.52,0,0,1,1.1,3.3,7.86,7.86,0,0,1-1,4.2,3.13,3.13,0,0,1-2.8,1.6,2.68,2.68,0,0,1-1.45-.3,3.83,3.83,0,0,1-.8-.7,4.46,4.46,0,0,0-.8-.7,2.8,2.8,0,0,0-1.45-.3c-1,0-2.24,1.15-3.7,3.45s-3.4,5.85-5.8,10.66l-3.5,20Z" transform="translate(-75.39 -124.22)"/><path class="cls-9" d="M194.81,509.15a31.65,31.65,0,0,1-2.65,3.3,27.19,27.19,0,0,1-3.25,3,19.55,19.55,0,0,1-3.4,2.2,6.77,6.77,0,0,1-2.9.86c-1.07,0-1.74-.37-2-1.11a7.17,7.17,0,0,1-.4-2.5,4.47,4.47,0,0,1,0-.8,7,7,0,0,1,.15-.7L186,484a1.46,1.46,0,0,0,.1-.59q0-.81-.6-.81c-.74,0-2.3,1.37-4.7,4.1l-1.2-2.2a25.21,25.21,0,0,1,2.7-3.25,35.49,35.49,0,0,1,3.3-3A21.7,21.7,0,0,1,189,476a6.69,6.69,0,0,1,3-.9,1.87,1.87,0,0,1,1.65.81,5.49,5.49,0,0,1,.55,2.89v.7a4.92,4.92,0,0,1-.1.8l-5.3,25c-.14.74-.27,1.45-.4,2.15a10,10,0,0,0-.2,2c0,1.13.26,1.69.8,1.69q1.1,0,4.7-4Zm-2.1-43.29q-4.8,0-4.8-5.81,0-5.6,5.2-5.6c3.26,0,4.9,1.87,4.9,5.6S196.24,465.86,192.71,465.86Z" transform="translate(-75.39 -124.22)"/><path class="cls-9" d="M224.2,517.65l.4-3q8.1,0,9.2-7.2l6.8-48q0-5-7.8-5l.4-3.09h15.1c1.94,0,3.47,0,4.6-.06s2.14-.06,3-.1l2.65-.09c.9,0,2.09-.06,3.55-.06q17.81,0,17.8,15a25.91,25.91,0,0,1-1.4,8.56,20.7,20.7,0,0,1-4.25,7.19,19.91,19.91,0,0,1-7.35,5,27.63,27.63,0,0,1-10.6,1.85c-1.93,0-3.8-.08-5.6-.25a39,39,0,0,1-5.3-.85l-2.7,19.5a9.86,9.86,0,0,0-.1,1.6q0,6,8,6l-.3,3Zm29.8-63.2q-3.69,0-4.5,5.3l-3.4,24.11A45.56,45.56,0,0,0,256.9,485a10.82,10.82,0,0,0,5.85-1.59,14.25,14.25,0,0,0,4.3-4.21,18.69,18.69,0,0,0,2.6-5.85,26,26,0,0,0,.85-6.65q0-12.19-14.1-12.2Z" transform="translate(-75.39 -124.22)"/><path class="cls-9" d="M280.74,519.25l5.8-32.6c.07-.4.12-.78.15-1.15a10.52,10.52,0,0,0,.05-1.14c0-1.21-.26-1.81-.8-1.81a4.51,4.51,0,0,0-1.9,1.06,27.6,27.6,0,0,0-3.3,3l-1.1-2.2a38.33,38.33,0,0,1,2.55-3.25,35.38,35.38,0,0,1,3-3,20.66,20.66,0,0,1,3.1-2.25,6,6,0,0,1,2.95-.9,2.13,2.13,0,0,1,1.5.56,2.88,2.88,0,0,1,.6,2.14c0,.8-.06,2.2-.2,4.2a40.45,40.45,0,0,1-1.4,7.5q1.31-2.7,2.85-5.34a35.38,35.38,0,0,1,3.3-4.75,22.7,22.7,0,0,1,3.5-3.46,5.68,5.68,0,0,1,3.45-1.35,3.79,3.79,0,0,1,2.8,1.1,4.48,4.48,0,0,1,1.1,3.3,7.77,7.77,0,0,1-1,4.2,3.12,3.12,0,0,1-2.8,1.6,2.7,2.7,0,0,1-1.45-.3,4.1,4.1,0,0,1-.8-.7,4.14,4.14,0,0,0-.8-.7,2.78,2.78,0,0,0-1.45-.3q-1.5,0-3.7,3.45t-5.8,10.66l-3.5,20Z" transform="translate(-75.39 -124.22)"/><path class="cls-9" d="M336.81,508.75a33.18,33.18,0,0,1-6.2,7.2,12.21,12.21,0,0,1-8.2,2.8,14.32,14.32,0,0,1-6.3-1.3,12.47,12.47,0,0,1-4.5-3.59,15.28,15.28,0,0,1-2.65-5.41,25.5,25.5,0,0,1-.85-6.7,32.32,32.32,0,0,1,1.6-10.14,30.82,30.82,0,0,1,4.35-8.61,23.09,23.09,0,0,1,6.35-6,14.13,14.13,0,0,1,7.6-2.25,14,14,0,0,1,7.3,1.75c1.94,1.17,2.9,3.29,2.9,6.36a13,13,0,0,1-.4,2.75,9.39,9.39,0,0,1-2.5,4,29.87,29.87,0,0,1-6.6,4.89A70.48,70.48,0,0,1,316,500q.3,6.41,2.8,9.55a8.09,8.09,0,0,0,6.7,3.15,9.86,9.86,0,0,0,5.55-1.75,15.42,15.42,0,0,0,4.05-3.65Zm-20.7-12.1c1.74-.73,3.5-1.54,5.3-2.41a41.37,41.37,0,0,0,4.95-2.81,16.24,16.24,0,0,0,3.7-3.32,6.13,6.13,0,0,0,1.45-3.92c0-4-1.46-5.94-4.4-5.94a6.92,6.92,0,0,0-4.5,1.66,14.88,14.88,0,0,0-3.45,4.28,24.12,24.12,0,0,0-2.25,5.88A27.75,27.75,0,0,0,316.11,496.65Z" transform="translate(-75.39 -124.22)"/><path class="cls-9" d="M399.19,509.15a22.63,22.63,0,0,1-2.55,3.3,26.45,26.45,0,0,1-3.25,3,18.83,18.83,0,0,1-3.4,2.2,6.73,6.73,0,0,1-2.9.86,1.74,1.74,0,0,1-1.6-.81,6.87,6.87,0,0,1-.6-3,2.92,2.92,0,0,1,.3-1.3l3.9-21a56.55,56.55,0,0,0,1.05-6c.17-1.53.29-2.7.35-3.5a2.24,2.24,0,0,0-.55-1.65,1.66,1.66,0,0,0-1.15-.55q-3.9,0-15.2,19l-2.8,16.61-7.5,2.29,5.4-26.2a54.56,54.56,0,0,0,1.1-5.5,27.2,27.2,0,0,0,.3-3.5c0-1.8-.53-2.7-1.6-2.7q-4.2,0-15.9,18.4l-3.4,17.71-6.6,2.39,6-32.6a2.92,2.92,0,0,0,.2-1.15,13.57,13.57,0,0,1,.1-1.55c0-.93-.23-1.4-.7-1.4q-1.1,0-4.4,4.1l-1.2-2.2a36.4,36.4,0,0,1,2.55-3.25,31.9,31.9,0,0,1,3.05-3,22.62,22.62,0,0,1,3.15-2.25,5.77,5.77,0,0,1,2.75-.9,1.58,1.58,0,0,1,1.35.6,4.66,4.66,0,0,1,.65,2.1,43.56,43.56,0,0,1-.45,5.15q-.45,3.45-2.05,10.15,12.3-18.29,20-18.3a2.46,2.46,0,0,1,2.2,1.7,12.26,12.26,0,0,1,.8,5,29.34,29.34,0,0,1-.4,4.7c-.26,1.67-.67,3.54-1.2,5.6A75.1,75.1,0,0,1,385.44,479q4.65-4.25,8.45-4.25c.6,0,1.32.47,2.15,1.4a6.29,6.29,0,0,1,1.25,4.3,31.32,31.32,0,0,1-.35,4.1q-.35,2.61-.85,6.31l-2.7,14.39c-.13,1.14-.23,2.07-.3,2.8s-.1,1.27-.1,1.6c0,.94.2,1.4.6,1.4q.9,0,4.5-4Z" transform="translate(-75.39 -124.22)"/></svg>