<svg xmlns="http://www.w3.org/2000/svg" width="30" height="24" viewBox="0 0 30 24">
  <g>
    <path fill="rgb(0,0,0)" fill-rule="evenodd" d="M2 0h26c1.10383005 0 2 .89616995 2 2s-.89616995 2-2 2H2C.89616995 4 0 3.10383005 0 2s.89616995-2 2-2z"/>
    <path fill="rgb(0,0,0)" fill-rule="evenodd" d="M2 10h26.00002c1.10383005 0 2 .89616995 2 2v.00000571c0 1.10383005-.89616995 2-2 2H2c-1.10383005 0-2-.89616995-2-2V12c0-1.10383005.89616995-2 2-2z"/>
    <path fill="rgb(0,0,0)" fill-rule="evenodd" d="M2 20.00001429h26.00002c1.10383005 0 2 .89616995 2 2V22.00002c0 1.10383005-.89616995 2-2 2H2c-1.10383005 0-2-.89616995-2-2v-.00000571c0-1.10383005.89616995-2 2-2z"/>
  </g>
</svg>
