<svg xmlns="http://www.w3.org/2000/svg" width="24" height="20" viewBox="0 0 24 20">
  <g>
    <path fill="rgb(250,179,89)" fill-rule="evenodd" d="M1.2 0h21.6c.66229803 0 1.2.53770197 1.2 1.2 1e-8.662298-.53770195 1.19999999-1.19999997 1.2H1.2C.53770197 2.4 0 1.86229803 0 1.2S.53770197 0 1.2 0z"/>
    <path fill="rgb(250,179,89)" fill-rule="evenodd" d="M1.2 8.8h21.6c.66229803 0 1.2.53770197 1.2 1.2s-.53770197 1.2-1.2 1.2H1.2C.53770197 11.2 0 10.66229803 0 10s.53770197-1.2 1.2-1.2z"/>
    <path fill="rgb(250,179,89)" fill-rule="evenodd" d="M1.2 17.6h21.6c.66229803 0 1.2.53770197 1.2 1.2s-.53770197 1.2-1.2 1.2H1.2C.53770197 20 0 19.46229803 0 18.8s.53770197-1.2 1.2-1.2z"/>
  </g>
</svg>
